<?xml version="1.0" encoding="utf-8"?>
<!-- Generator: Adobe Illustrator 23.0.1, SVG Export Plug-In . SVG Version: 6.00 Build 0)  -->
<svg version="1.1" id="Layer_1" xmlns="http://www.w3.org/2000/svg" xmlns:xlink="http://www.w3.org/1999/xlink" x="0px" y="0px"
	 viewBox="0 0 1204.84 278.9" style="enable-background:new 0 0 1204.84 278.9;" xml:space="preserve">
<style type="text/css">
	.st0{fill:#FFFFFF;}
	.st1{fill-rule:evenodd;clip-rule:evenodd;fill:#003795;}
	.st2{fill:#015EFD;}
	.st3{fill-rule:evenodd;clip-rule:evenodd;fill:#0041AF;}
	.st4{fill-rule:evenodd;clip-rule:evenodd;fill:#004BCB;}
	.st5{fill:#00B4FF;}
	.st6{fill-rule:evenodd;clip-rule:evenodd;fill:#939393;}
	.st7{fill-rule:evenodd;clip-rule:evenodd;fill:#AFAFAF;}
	.st8{fill-rule:evenodd;clip-rule:evenodd;fill:#E8E8E8;}
</style>
<g>
	<path class="st0" d="M384.52,228.04c-22.4,0-37.02-16.69-37.02-40.68V67.83c0-1.14,0.91-1.83,2.06-1.83h6.86
		c1.14,0,1.83,0.69,1.83,1.83v119.53c0,18.51,10.28,30.63,26.28,30.63c15.77,0,26.05-12.11,26.05-30.63V67.83
		c0-1.14,0.91-1.83,2.06-1.83h6.86c1.14,0,1.83,0.69,1.83,1.83v119.53C421.32,211.35,406.69,228.04,384.52,228.04L384.52,228.04z
		 M456.72,225.98h-6.86c-1.14,0-1.83-0.69-1.83-1.83V67.83c0-1.14,0.69-1.83,1.83-1.83h6.86c1.14,0,2.05,0.69,2.05,1.83v156.32
		C458.78,225.29,457.87,225.98,456.72,225.98L456.72,225.98z M561.39,68.05l-27.65,72.91c16,4.34,26.28,19.43,26.28,38.4v44.79
		c0,1.14-0.69,1.83-1.83,1.83h-6.86c-1.14,0-1.83-0.69-1.83-1.83v-44.79c0-17.37-10.97-29.94-26.05-29.94h-24.68v74.73
		c0,1.14-0.91,1.83-2.05,1.83h-6.86c-1.14,0-1.83-0.69-1.83-1.83V67.83c0-1.14,0.69-1.83,1.83-1.83h6.86c1.14,0,2.05,0.69,2.05,1.83
		v71.53h24.91l27.2-71.76c0.23-0.91,1.37-1.6,2.29-1.6h6.86C561.39,66,561.85,66.91,561.39,68.05L561.39,68.05z M594.74,225.98
		h-6.86c-1.14,0-1.83-0.69-1.83-1.83V67.83c0-1.14,0.69-1.83,1.83-1.83h6.86c1.14,0,2.06,0.69,2.06,1.83v156.32
		C596.79,225.29,595.88,225.98,594.74,225.98L594.74,225.98z M680.66,76.05h-28.57v148.1c0,1.14-0.69,1.83-1.83,1.83h-6.86
		c-1.14,0-2.06-0.69-2.06-1.83V76.05h-28.57c-1.14,0-1.83-0.91-1.83-2.06v-6.17c0-1.14,0.69-1.83,1.83-1.83h67.88
		c1.14,0,1.83,0.69,1.83,1.83V74C682.49,75.14,681.8,76.05,680.66,76.05L680.66,76.05z M692.07,227.58c-2.97,0-5.03-2.06-5.03-5.03
		s2.06-5.03,5.03-5.03c2.97,0,5.03,2.06,5.03,5.03S695.04,227.58,692.07,227.58L692.07,227.58z M747.15,161.99h-29.02v62.85
		c0,0.69-0.46,1.14-1.14,1.14h-2.29c-0.69,0-1.14-0.46-1.14-1.14V102.11c0-21.71,12.57-37.71,33.14-37.71
		c20.8,0,34.05,16,34.05,37.71v22.17C780.75,145.99,765.43,161.99,747.15,161.99L747.15,161.99z M776.17,102.11
		c0-19.66-10.97-33.37-29.48-33.37c-17.83,0-28.57,13.71-28.57,33.37v55.54h29.02c16,0,29.03-13.71,29.03-33.37V102.11
		L776.17,102.11z M796.73,227.58c-21.25,0-34.97-15.54-35.42-36.57c0-0.69,0.46-1.14,1.14-1.14h2.29c0.69,0,1.14,0.46,1.14,1.14
		c0.46,18.97,11.88,32.22,30.85,32.22c21.03,0,29.94-13.71,29.94-37.94V67.14c0-0.69,0.46-1.14,1.14-1.14h2.29
		c0.69,0,1.14,0.46,1.14,1.14V185.3C831.24,211.58,820.5,227.58,796.73,227.58L796.73,227.58z M892.7,222.09h20.57
		c0.69,0,1.14,0.46,1.14,1.14v2.06c0,0.69-0.46,1.14-1.14,1.14H892.7c-21.94,0-35.42-16-35.42-37.71v-85.48
		c0-21.71,13.49-37.71,35.42-37.71h20.57c0.69,0,1.14,0.46,1.14,1.14v2.06c0,0.69-0.46,1.14-1.14,1.14H892.7
		c-19.2,0-30.85,13.71-30.85,33.37v39.08h46.85c0.69,0,1.14,0.46,1.14,1.14v2.05c0,0.69-0.46,1.14-1.14,1.14h-46.85v42.05
		C861.85,208.38,873.51,222.09,892.7,222.09L892.7,222.09z M930.17,227.58c-2.97,0-5.03-2.06-5.03-5.03s2.06-5.03,5.03-5.03
		c2.97,0,5.03,2.06,5.03,5.03S933.14,227.58,930.17,227.58L930.17,227.58z M977.47,227.58c-21.26,0-34.97-15.54-35.42-36.57
		c0-0.69,0.46-1.14,1.14-1.14h2.29c0.69,0,1.14,0.46,1.14,1.14c0.46,18.97,11.89,32.22,30.85,32.22c21.03,0,29.94-13.71,29.94-37.94
		V67.14c0-0.69,0.46-1.14,1.14-1.14h2.29c0.69,0,1.14,0.46,1.14,1.14V185.3C1011.98,211.58,1001.24,227.58,977.47,227.58
		L977.47,227.58z M1075.5,227.58c-21.03,0-35.2-15.77-35.2-40V67.14c0-0.69,0.46-1.14,1.14-1.14h2.29c0.69,0,1.14,0.46,1.14,1.14
		v120.44c0,22.17,12.34,35.65,30.63,35.65c18.51,0,30.62-13.48,30.62-35.65V67.14c0-0.69,0.46-1.14,1.14-1.14h2.29
		c0.69,0,1.14,0.46,1.14,1.14v120.44C1110.7,211.81,1096.3,227.58,1075.5,227.58L1075.5,227.58z M1202.55,102.11h-2.29
		c-0.69,0-1.14-0.46-1.14-1.14c-0.46-20.34-12.8-32.22-29.71-32.22c-17.14,0-29.94,11.88-29.94,31.31
		c0,40.91,65.36,45.03,65.36,91.87c0,19.88-13.71,35.66-35.42,35.66c-21.71,0-35.65-15.54-35.65-36.57c0-0.69,0.45-1.14,1.14-1.14
		h2.29c0.69,0,1.14,0.46,1.14,1.14c0.46,18.51,12.11,32.22,31.08,32.22c19.43,0,30.85-13.71,30.85-31.31
		c0-44.57-65.36-47.54-65.36-91.87c0-21.48,14.63-35.65,34.51-35.65c19.2,0,34.28,14.17,34.28,36.57
		C1203.7,101.65,1203.24,102.11,1202.55,102.11L1202.55,102.11z"/>
</g>
<g>
	<polygon class="st6" points="117.78,0 235.56,78.52 235.56,196.3 117.78,117.78 117.78,0 	"/>
	<polygon class="st0" points="235.56,196.28 117.78,274.82 117.78,157.06 235.56,78.52 	"/>
	<polygon class="st7" points="0,78.52 117.78,0 117.78,117.78 0,196.3 0,78.52 	"/>
	<polygon class="st8" points="0,78.52 117.78,157.04 117.78,274.82 0,196.3 0,78.52 	"/>
	<g>
		<rect x="227.61" y="184.52" class="st5" width="19.68" height="19.92"/>
		<rect x="228.6" y="185.52" class="st0" width="17.7" height="17.92"/>
	</g>
	<g>
		<rect x="227.61" y="129.28" class="st5" width="19.68" height="19.92"/>
		<rect x="228.6" y="130.28" class="st0" width="17.7" height="17.92"/>
	</g>
	<g>
		<rect x="227.61" y="70.49" class="st5" width="19.68" height="19.92"/>
		<rect x="228.6" y="71.49" class="st0" width="17.7" height="17.92"/>
	</g>
	<g>
		<rect x="106.1" y="259.44" class="st5" width="19.68" height="19.92"/>
		<rect x="107.09" y="260.44" class="st0" width="17.7" height="17.92"/>
	</g>
	<g>
		<rect x="106.1" y="204.2" class="st5" width="19.68" height="19.92"/>
		<rect x="107.09" y="205.2" class="st0" width="17.7" height="17.92"/>
	</g>
	<g>
		<rect x="106.1" y="145.41" class="st5" width="19.68" height="19.92"/>
		<rect x="107.09" y="146.4" class="st0" width="17.7" height="17.92"/>
	</g>
	<g>
		<rect x="168.69" y="223.73" class="st5" width="19.68" height="19.92"/>
		<rect x="169.68" y="224.73" class="st0" width="17.7" height="17.92"/>
	</g>
	<g>
		<rect x="168.69" y="109.69" class="st5" width="19.68" height="19.92"/>
		<rect x="169.68" y="110.69" class="st0" width="17.7" height="17.92"/>
	</g>
</g>
</svg>
